<svg xmlns="http://www.w3.org/2000/svg" fill="none" viewBox="0 0 450 86" height="86" width="450">
<path fill="#3666EC" d="M0 0H450L417 86H0V0Z"></path>
<path fill="white" d="M394.47 27.048H380.148V64H372.708V27.048H358.448V20.042H394.47V27.048Z"></path>
<path fill="white" d="M353.606 64L349.452 52.964H330.852L326.76 64H318.886L335.998 20.042H344.616L361.728 64H353.606ZM340.152 28.102L333.456 46.082H346.848L340.152 28.102Z"></path>
<path fill="white" d="M315.251 64H288.095V20.042H315.251V26.986H295.535V38.642H313.391V45.4H295.535V57.056H315.251V64Z"></path>
<path fill="white" d="M251.079 20.042H266.207C270.341 20.042 273.606 21.1373 276.003 23.328C278.401 25.5187 279.599 28.3707 279.599 31.884C279.599 34.1573 279 36.1413 277.801 37.836C276.603 39.4893 275.032 40.6673 273.089 41.37C275.445 41.99 277.347 43.2507 278.793 45.152C280.24 47.0533 280.963 49.2853 280.963 51.848C280.963 55.4027 279.703 58.3167 277.181 60.59C274.66 62.8633 271.374 64 267.323 64H251.079V20.042ZM258.457 38.642H265.215C267.365 38.642 269.059 38.084 270.299 36.968C271.539 35.852 272.159 34.364 272.159 32.504C272.159 30.6027 271.519 29.1147 270.237 28.04C268.997 26.924 267.261 26.366 265.029 26.366H258.457V38.642ZM258.457 57.676H266.021C268.253 57.676 270.031 57.118 271.353 56.002C272.717 54.8447 273.399 53.2947 273.399 51.352C273.399 49.4093 272.759 47.8593 271.477 46.702C270.237 45.5033 268.501 44.904 266.269 44.904H258.457V57.676Z"></path>
<path fill="white" d="M236.251 64L222.549 44.966L216.721 51.352V64H209.281V20.042H216.721V41.122L235.631 20.042H245.427L227.633 39.448L245.613 64H236.251Z"></path>
<path fill="white" d="M203.125 64H175.535V20.042H182.975V56.932H203.125V64Z"></path>
<path fill="white" d="M162.172 64L158.018 52.964H139.418L135.326 64H127.452L144.564 20.042H153.182L170.294 64H162.172ZM148.718 28.102L142.022 46.082H155.414L148.718 28.102Z"></path>
<path fill="white" d="M122.198 64H114.696V45.214H94.0496V64H86.6096V20.042H94.0496V38.208H114.696V20.042H122.198V64Z"></path>
<path fill="white" d="M59.8 64.93C53.6413 64.93 48.392 62.8427 44.052 58.668C39.7533 54.4933 37.604 48.9547 37.604 42.052C37.604 35.1907 39.7947 29.652 44.176 25.436C48.5573 21.22 53.7447 19.112 59.738 19.112C65.0287 19.112 69.3687 20.4553 72.758 23.142C76.1887 25.8287 78.4413 29.2387 79.516 33.372L72.51 35.728C71.8073 32.876 70.3813 30.5613 68.232 28.784C66.0827 27.0067 63.2513 26.118 59.738 26.118C55.8113 26.118 52.4013 27.5233 49.508 30.334C46.656 33.1033 45.23 37.0093 45.23 42.052C45.23 46.9707 46.656 50.8353 49.508 53.646C52.36 56.4153 55.7907 57.8 59.8 57.8C63.2307 57.8 66.062 56.87 68.294 55.01C70.526 53.15 72.0553 50.856 72.882 48.128L79.702 50.36C78.6273 54.452 76.354 57.9033 72.882 60.714C69.4513 63.5247 65.0907 64.93 59.8 64.93Z"></path>
</svg>
