<svg viewBox="0 0 447 86" fill="none" xmlns="http://www.w3.org/2000/svg"><path d="M0 0h447l-33 86H0V0Z" fill="#F25A4D"></path><path d="M65.858 64h-7.502V45.214H37.71V64h-7.44V20.042h7.44v18.166h20.646V20.042h7.502V64Zm37.06 0H75.762V20.042h27.156v6.944H83.202v11.656h17.856V45.4H83.202v11.656h19.716V64Zm38.355 0-4.154-11.036h-18.6L114.427 64h-7.874l17.112-43.958h8.618L149.395 64h-8.122Zm-13.454-35.898-6.696 17.98h13.392l-6.696-17.98ZM182.226 64h-27.59V20.042h7.44v36.89h20.15V64Zm33.355-36.952h-14.322V64h-7.44V27.048h-14.26v-7.006h36.022v7.006ZM256.626 64h-7.502V45.214h-20.646V64h-7.44V20.042h7.44v18.166h20.646V20.042h7.502V64Zm9.904-43.958h15.128c4.133 0 7.399 1.095 9.796 3.286 2.397 2.19 3.596 5.043 3.596 8.556 0 2.273-.599 4.257-1.798 5.952-1.199 1.653-2.769 2.831-4.712 3.534 2.356.62 4.257 1.88 5.704 3.782 1.447 1.901 2.17 4.133 2.17 6.696 0 3.555-1.261 6.469-3.782 8.742-2.521 2.273-5.807 3.41-9.858 3.41H266.53V20.042Zm7.378 18.6h6.758c2.149 0 3.844-.558 5.084-1.674 1.24-1.116 1.86-2.604 1.86-4.464 0-1.901-.641-3.39-1.922-4.464-1.24-1.116-2.976-1.674-5.208-1.674h-6.572v12.276Zm0 19.034h7.564c2.232 0 4.009-.558 5.332-1.674 1.364-1.157 2.046-2.707 2.046-4.65 0-1.943-.641-3.493-1.922-4.65-1.24-1.199-2.976-1.798-5.208-1.798h-7.812v12.772ZM330.701 64h-27.156V20.042h27.156v6.944h-19.716v11.656h17.856V45.4h-17.856v11.656h19.716V64Zm38.356 0-4.154-11.036h-18.6L342.211 64h-7.874l17.112-43.958h8.618L377.179 64h-8.122Zm-13.454-35.898-6.696 17.98h13.392l-6.696-17.98Zm54.318-1.054h-14.322V64h-7.44V27.048h-14.26v-7.006h36.022v7.006Z" fill="#fff"></path></svg>