<svg xmlns="http://www.w3.org/2000/svg" fill="none" viewBox="0 0 387 86" height="86" width="387">
<path fill="#824F9D" d="M0 0H377L344 86H0V0Z"></path>
<path fill="white" d="M45.956 54.266L58.294 20.042H66.168L49.552 64H41.988L25.62 20.042H33.68L45.956 54.266ZM79.1283 30.334C76.235 33.1033 74.7883 36.9887 74.7883 41.99C74.7883 46.9913 76.235 50.8973 79.1283 53.708C82.0217 56.4773 85.473 57.862 89.4823 57.862C93.4917 57.862 96.943 56.4773 99.8363 53.708C102.771 50.8973 104.238 46.9913 104.238 41.99C104.238 36.9887 102.771 33.1033 99.8363 30.334C96.943 27.5233 93.4917 26.118 89.4823 26.118C85.473 26.118 82.0217 27.5233 79.1283 30.334ZM70.3243 54.266C68.2163 50.7113 67.1623 46.6193 67.1623 41.99C67.1623 37.3607 68.2163 33.2893 70.3243 29.776C72.4737 26.2213 75.2223 23.5553 78.5703 21.778C81.9183 20.0007 85.5557 19.112 89.4823 19.112C93.409 19.112 97.0463 20.0007 100.394 21.778C103.742 23.5553 106.491 26.2213 108.64 29.776C110.79 33.2893 111.864 37.3607 111.864 41.99C111.864 46.6193 110.79 50.7113 108.64 54.266C106.491 57.8207 103.742 60.4867 100.394 62.264C97.0463 64.0413 93.409 64.93 89.4823 64.93C85.5557 64.93 81.9183 64.0413 78.5703 62.264C75.2223 60.4867 72.4737 57.8207 70.3243 54.266ZM149.24 27.048H134.918V64H127.478V27.048H113.218V20.042H149.24V27.048ZM181.853 64H154.697V20.042H181.853V26.986H162.137V38.642H179.993V45.4H162.137V57.056H181.853V64ZM190.138 20.042H205.266C209.399 20.042 212.665 21.1373 215.062 23.328C217.459 25.5187 218.658 28.3707 218.658 31.884C218.658 34.1573 218.059 36.1413 216.86 37.836C215.661 39.4893 214.091 40.6673 212.148 41.37C214.504 41.99 216.405 43.2507 217.852 45.152C219.299 47.0533 220.022 49.2853 220.022 51.848C220.022 55.4027 218.761 58.3167 216.24 60.59C213.719 62.8633 210.433 64 206.382 64H190.138V20.042ZM197.516 38.642H204.274C206.423 38.642 208.118 38.084 209.358 36.968C210.598 35.852 211.218 34.364 211.218 32.504C211.218 30.6027 210.577 29.1147 209.296 28.04C208.056 26.924 206.32 26.366 204.088 26.366H197.516V38.642ZM197.516 57.676H205.08C207.312 57.676 209.089 57.118 210.412 56.002C211.776 54.8447 212.458 53.2947 212.458 51.352C212.458 49.4093 211.817 47.8593 210.536 46.702C209.296 45.5033 207.56 44.904 205.328 44.904H197.516V57.676ZM254.309 64H227.153V20.042H254.309V26.986H234.593V38.642H252.449V45.4H234.593V57.056H254.309V64ZM292.665 64L288.511 52.964H269.911L265.819 64H257.945L275.057 20.042H283.675L300.787 64H292.665ZM279.211 28.102L272.515 46.082H285.907L279.211 28.102ZM333.529 27.048H319.207V64H311.767V27.048H297.507V20.042H333.529V27.048Z"></path>
</svg>
